<mxfile host="Electron" agent="Mozilla/5.0 (Windows NT 10.0; Win64; x64) AppleWebKit/537.36 (KHTML, like Gecko) draw.io/26.1.1 Chrome/132.0.6834.210 Electron/34.3.3 Safari/537.36" version="26.1.1">
  <diagram id="_uCBs_YcpVC_Cj8ShVzP" name="Arquitetura">
    <mxGraphModel dx="1195" dy="697" grid="1" gridSize="10" guides="1" tooltips="1" connect="1" arrows="1" fold="1" page="1" pageScale="1" pageWidth="827" pageHeight="1169" math="0" shadow="0">
      <root>
        <mxCell id="0" />
        <mxCell id="1" parent="0" />
        <mxCell id="eMamBAK1yqmDbK0pNENE-14" value="" style="edgeStyle=orthogonalEdgeStyle;rounded=0;orthogonalLoop=1;jettySize=auto;html=1;" edge="1" parent="1" source="eMamBAK1yqmDbK0pNENE-12">
          <mxGeometry relative="1" as="geometry">
            <mxPoint x="1170" y="230" as="targetPoint" />
          </mxGeometry>
        </mxCell>
        <mxCell id="eMamBAK1yqmDbK0pNENE-57" value="" style="group" vertex="1" connectable="0" parent="1">
          <mxGeometry x="200" y="260" width="900" height="480" as="geometry" />
        </mxCell>
        <mxCell id="eMamBAK1yqmDbK0pNENE-56" value="" style="rounded=1;whiteSpace=wrap;html=1;arcSize=4;strokeColor=light-dark(#E6E6E6,#EDEDED);" vertex="1" parent="eMamBAK1yqmDbK0pNENE-57">
          <mxGeometry width="900" height="480" as="geometry" />
        </mxCell>
        <mxCell id="eMamBAK1yqmDbK0pNENE-37" value="" style="rounded=1;whiteSpace=wrap;html=1;fillColor=none;arcSize=4;dashed=1;dashPattern=8 8;" vertex="1" parent="eMamBAK1yqmDbK0pNENE-57">
          <mxGeometry x="210" y="130" width="560" height="200" as="geometry" />
        </mxCell>
        <mxCell id="eMamBAK1yqmDbK0pNENE-27" value="" style="edgeStyle=orthogonalEdgeStyle;rounded=0;orthogonalLoop=1;jettySize=auto;html=1;endArrow=none;startFill=1;startArrow=classic;" edge="1" parent="eMamBAK1yqmDbK0pNENE-57">
          <mxGeometry relative="1" as="geometry">
            <mxPoint x="330" y="390" as="sourcePoint" />
            <mxPoint x="417" y="300" as="targetPoint" />
          </mxGeometry>
        </mxCell>
        <mxCell id="eMamBAK1yqmDbK0pNENE-23" value="" style="edgeStyle=orthogonalEdgeStyle;rounded=0;orthogonalLoop=1;jettySize=auto;html=1;" edge="1" parent="eMamBAK1yqmDbK0pNENE-57" source="kB_i2MOOOMEn5ZTrfHnB-1" target="eMamBAK1yqmDbK0pNENE-6">
          <mxGeometry relative="1" as="geometry" />
        </mxCell>
        <mxCell id="kB_i2MOOOMEn5ZTrfHnB-1" value="Amazon API&lt;br&gt;Gateway&lt;br&gt;" style="outlineConnect=0;fontColor=#232F3E;gradientColor=#945DF2;gradientDirection=north;fillColor=#5A30B5;strokeColor=#ffffff;dashed=0;verticalLabelPosition=bottom;verticalAlign=top;align=center;html=1;fontSize=12;fontStyle=0;aspect=fixed;shape=mxgraph.aws4.resourceIcon;resIcon=mxgraph.aws4.api_gateway;labelBackgroundColor=#ffffff;" vertex="1" parent="eMamBAK1yqmDbK0pNENE-57">
          <mxGeometry x="123" y="208" width="52" height="52" as="geometry" />
        </mxCell>
        <mxCell id="eMamBAK1yqmDbK0pNENE-53" value="" style="edgeStyle=orthogonalEdgeStyle;rounded=0;orthogonalLoop=1;jettySize=auto;html=1;" edge="1" parent="eMamBAK1yqmDbK0pNENE-57" source="kB_i2MOOOMEn5ZTrfHnB-2" target="kB_i2MOOOMEn5ZTrfHnB-1">
          <mxGeometry relative="1" as="geometry" />
        </mxCell>
        <mxCell id="kB_i2MOOOMEn5ZTrfHnB-2" value="User" style="shape=umlActor;verticalLabelPosition=bottom;verticalAlign=top;html=1;outlineConnect=0;" vertex="1" parent="eMamBAK1yqmDbK0pNENE-57">
          <mxGeometry x="20" y="203.5" width="30" height="60" as="geometry" />
        </mxCell>
        <mxCell id="eMamBAK1yqmDbK0pNENE-25" value="" style="edgeStyle=orthogonalEdgeStyle;rounded=0;orthogonalLoop=1;jettySize=auto;html=1;entryX=0;entryY=0.5;entryDx=0;entryDy=0;entryPerimeter=0;exitX=0.5;exitY=0;exitDx=0;exitDy=0;exitPerimeter=0;" edge="1" parent="eMamBAK1yqmDbK0pNENE-57" source="eMamBAK1yqmDbK0pNENE-3" target="eMamBAK1yqmDbK0pNENE-5">
          <mxGeometry relative="1" as="geometry" />
        </mxCell>
        <mxCell id="eMamBAK1yqmDbK0pNENE-50" value="logs e metrics" style="edgeLabel;html=1;align=center;verticalAlign=middle;resizable=0;points=[];" vertex="1" connectable="0" parent="eMamBAK1yqmDbK0pNENE-25">
          <mxGeometry x="-0.1051" relative="1" as="geometry">
            <mxPoint y="64" as="offset" />
          </mxGeometry>
        </mxCell>
        <mxCell id="eMamBAK1yqmDbK0pNENE-48" value="" style="edgeStyle=orthogonalEdgeStyle;rounded=0;orthogonalLoop=1;jettySize=auto;html=1;" edge="1" parent="eMamBAK1yqmDbK0pNENE-57" source="eMamBAK1yqmDbK0pNENE-5" target="eMamBAK1yqmDbK0pNENE-47">
          <mxGeometry relative="1" as="geometry" />
        </mxCell>
        <mxCell id="eMamBAK1yqmDbK0pNENE-5" value="&lt;div&gt;CloudWatch&lt;/div&gt;" style="sketch=0;points=[[0,0,0],[0.25,0,0],[0.5,0,0],[0.75,0,0],[1,0,0],[0,1,0],[0.25,1,0],[0.5,1,0],[0.75,1,0],[1,1,0],[0,0.25,0],[0,0.5,0],[0,0.75,0],[1,0.25,0],[1,0.5,0],[1,0.75,0]];points=[[0,0,0],[0.25,0,0],[0.5,0,0],[0.75,0,0],[1,0,0],[0,1,0],[0.25,1,0],[0.5,1,0],[0.75,1,0],[1,1,0],[0,0.25,0],[0,0.5,0],[0,0.75,0],[1,0.25,0],[1,0.5,0],[1,0.75,0]];outlineConnect=0;fontColor=#232F3E;fillColor=#E7157B;strokeColor=#ffffff;dashed=0;verticalLabelPosition=bottom;verticalAlign=top;align=center;html=1;fontSize=12;fontStyle=0;aspect=fixed;shape=mxgraph.aws4.resourceIcon;resIcon=mxgraph.aws4.cloudwatch_2;" vertex="1" parent="eMamBAK1yqmDbK0pNENE-57">
          <mxGeometry x="490" y="30" width="50" height="50" as="geometry" />
        </mxCell>
        <mxCell id="eMamBAK1yqmDbK0pNENE-26" value="" style="edgeStyle=orthogonalEdgeStyle;rounded=0;orthogonalLoop=1;jettySize=auto;html=1;entryX=0.027;entryY=0.461;entryDx=0;entryDy=0;entryPerimeter=0;" edge="1" parent="eMamBAK1yqmDbK0pNENE-57">
          <mxGeometry relative="1" as="geometry">
            <mxPoint x="442.9999999999999" y="233.5094339622642" as="sourcePoint" />
            <mxPoint x="566.404" y="179.97199999999998" as="targetPoint" />
            <Array as="points">
              <mxPoint x="500" y="234" />
              <mxPoint x="500" y="180" />
            </Array>
          </mxGeometry>
        </mxCell>
        <mxCell id="eMamBAK1yqmDbK0pNENE-33" style="edgeStyle=orthogonalEdgeStyle;rounded=0;orthogonalLoop=1;jettySize=auto;html=1;" edge="1" parent="eMamBAK1yqmDbK0pNENE-57" target="eMamBAK1yqmDbK0pNENE-16">
          <mxGeometry relative="1" as="geometry">
            <mxPoint x="440" y="233.5121951219512" as="sourcePoint" />
            <mxPoint x="561.2142469838689" y="290.0000000000001" as="targetPoint" />
            <Array as="points">
              <mxPoint x="500" y="234" />
              <mxPoint x="500" y="290" />
            </Array>
          </mxGeometry>
        </mxCell>
        <mxCell id="eMamBAK1yqmDbK0pNENE-3" value="&lt;div&gt;ECS Fargate&lt;/div&gt;&lt;div&gt;API - FastAPI&lt;/div&gt;" style="sketch=0;points=[[0,0,0],[0.25,0,0],[0.5,0,0],[0.75,0,0],[1,0,0],[0,1,0],[0.25,1,0],[0.5,1,0],[0.75,1,0],[1,1,0],[0,0.25,0],[0,0.5,0],[0,0.75,0],[1,0.25,0],[1,0.5,0],[1,0.75,0]];outlineConnect=0;fontColor=#232F3E;fillColor=#ED7100;strokeColor=#ffffff;dashed=0;verticalLabelPosition=bottom;verticalAlign=top;align=center;html=1;fontSize=12;fontStyle=0;aspect=fixed;shape=mxgraph.aws4.resourceIcon;resIcon=mxgraph.aws4.ecs;" vertex="1" parent="eMamBAK1yqmDbK0pNENE-57">
          <mxGeometry x="391" y="207" width="53" height="53" as="geometry" />
        </mxCell>
        <mxCell id="eMamBAK1yqmDbK0pNENE-24" value="" style="edgeStyle=orthogonalEdgeStyle;rounded=0;orthogonalLoop=1;jettySize=auto;html=1;" edge="1" parent="eMamBAK1yqmDbK0pNENE-57" source="eMamBAK1yqmDbK0pNENE-6" target="eMamBAK1yqmDbK0pNENE-3">
          <mxGeometry relative="1" as="geometry" />
        </mxCell>
        <mxCell id="eMamBAK1yqmDbK0pNENE-6" value="&lt;div&gt;&lt;br&gt;&lt;/div&gt;&lt;div&gt;&lt;br&gt;&lt;/div&gt;&lt;div&gt;&lt;br&gt;&lt;/div&gt;&lt;div&gt;&lt;br&gt;&lt;/div&gt;&lt;div&gt;&lt;br&gt;&lt;/div&gt;&lt;div&gt;&lt;br&gt;&lt;/div&gt;&lt;div&gt;&lt;br&gt;&lt;/div&gt;&lt;div&gt;Application Load&lt;/div&gt;&lt;div&gt;Balancer&lt;/div&gt;" style="points=[];aspect=fixed;html=1;align=center;shadow=0;dashed=0;fillColor=#FF6A00;strokeColor=none;shape=mxgraph.alibaba_cloud.alb_application_load_balancer_02;" vertex="1" parent="eMamBAK1yqmDbK0pNENE-57">
          <mxGeometry x="260" y="204" width="60" height="60" as="geometry" />
        </mxCell>
        <mxCell id="eMamBAK1yqmDbK0pNENE-7" value="Elastic Container&lt;div&gt;Registry&lt;/div&gt;" style="sketch=0;points=[[0,0,0],[0.25,0,0],[0.5,0,0],[0.75,0,0],[1,0,0],[0,1,0],[0.25,1,0],[0.5,1,0],[0.75,1,0],[1,1,0],[0,0.25,0],[0,0.5,0],[0,0.75,0],[1,0.25,0],[1,0.5,0],[1,0.75,0]];outlineConnect=0;fontColor=#232F3E;fillColor=#ED7100;strokeColor=#ffffff;dashed=0;verticalLabelPosition=bottom;verticalAlign=top;align=center;html=1;fontSize=12;fontStyle=0;aspect=fixed;shape=mxgraph.aws4.resourceIcon;resIcon=mxgraph.aws4.ecr;" vertex="1" parent="eMamBAK1yqmDbK0pNENE-57">
          <mxGeometry x="270" y="360" width="59" height="59" as="geometry" />
        </mxCell>
        <mxCell id="eMamBAK1yqmDbK0pNENE-49" value="" style="edgeStyle=orthogonalEdgeStyle;rounded=0;orthogonalLoop=1;jettySize=auto;html=1;" edge="1" parent="eMamBAK1yqmDbK0pNENE-57" source="eMamBAK1yqmDbK0pNENE-8" target="eMamBAK1yqmDbK0pNENE-42">
          <mxGeometry relative="1" as="geometry" />
        </mxCell>
        <mxCell id="eMamBAK1yqmDbK0pNENE-8" value="SQS" style="sketch=0;points=[[0,0,0],[0.25,0,0],[0.5,0,0],[0.75,0,0],[1,0,0],[0,1,0],[0.25,1,0],[0.5,1,0],[0.75,1,0],[1,1,0],[0,0.25,0],[0,0.5,0],[0,0.75,0],[1,0.25,0],[1,0.5,0],[1,0.75,0]];outlineConnect=0;fontColor=#232F3E;fillColor=#E7157B;strokeColor=#ffffff;dashed=0;verticalLabelPosition=bottom;verticalAlign=top;align=center;html=1;fontSize=12;fontStyle=0;aspect=fixed;shape=mxgraph.aws4.resourceIcon;resIcon=mxgraph.aws4.sqs;" vertex="1" parent="eMamBAK1yqmDbK0pNENE-57">
          <mxGeometry x="566" y="156" width="52" height="52" as="geometry" />
        </mxCell>
        <mxCell id="eMamBAK1yqmDbK0pNENE-16" value="LLM Provider&lt;div&gt;&lt;br&gt;&lt;/div&gt;" style="sketch=0;outlineConnect=0;fontColor=#232F3E;gradientColor=none;fillColor=#01A88D;strokeColor=none;dashed=0;verticalLabelPosition=bottom;verticalAlign=top;align=center;html=1;fontSize=12;fontStyle=0;aspect=fixed;pointerEvents=1;shape=mxgraph.aws4.sagemaker_model;" vertex="1" parent="eMamBAK1yqmDbK0pNENE-57">
          <mxGeometry x="810" y="263.5" width="58" height="58" as="geometry" />
        </mxCell>
        <mxCell id="eMamBAK1yqmDbK0pNENE-2" value="" style="outlineConnect=0;dashed=0;verticalLabelPosition=bottom;verticalAlign=top;align=center;html=1;shape=mxgraph.aws3.virtual_private_cloud;fillColor=#F58534;gradientColor=none;" vertex="1" parent="eMamBAK1yqmDbK0pNENE-57">
          <mxGeometry x="225" y="108" width="45" height="30" as="geometry" />
        </mxCell>
        <mxCell id="eMamBAK1yqmDbK0pNENE-44" value="" style="edgeStyle=orthogonalEdgeStyle;rounded=0;orthogonalLoop=1;jettySize=auto;html=1;" edge="1" parent="eMamBAK1yqmDbK0pNENE-57" source="eMamBAK1yqmDbK0pNENE-42" target="eMamBAK1yqmDbK0pNENE-43">
          <mxGeometry relative="1" as="geometry" />
        </mxCell>
        <mxCell id="eMamBAK1yqmDbK0pNENE-42" value="&lt;div&gt;ECS Fargate&lt;/div&gt;&lt;div&gt;Worker&lt;/div&gt;" style="sketch=0;points=[[0,0,0],[0.25,0,0],[0.5,0,0],[0.75,0,0],[1,0,0],[0,1,0],[0.25,1,0],[0.5,1,0],[0.75,1,0],[1,1,0],[0,0.25,0],[0,0.5,0],[0,0.75,0],[1,0.25,0],[1,0.5,0],[1,0.75,0]];outlineConnect=0;fontColor=#232F3E;fillColor=#ED7100;strokeColor=#ffffff;dashed=0;verticalLabelPosition=bottom;verticalAlign=top;align=center;html=1;fontSize=12;fontStyle=0;aspect=fixed;shape=mxgraph.aws4.resourceIcon;resIcon=mxgraph.aws4.ecs;" vertex="1" parent="eMamBAK1yqmDbK0pNENE-57">
          <mxGeometry x="681" y="155" width="53" height="53" as="geometry" />
        </mxCell>
        <mxCell id="eMamBAK1yqmDbK0pNENE-43" value="DynamoDB" style="sketch=0;points=[[0,0,0],[0.25,0,0],[0.5,0,0],[0.75,0,0],[1,0,0],[0,1,0],[0.25,1,0],[0.5,1,0],[0.75,1,0],[1,1,0],[0,0.25,0],[0,0.5,0],[0,0.75,0],[1,0.25,0],[1,0.5,0],[1,0.75,0]];outlineConnect=0;fontColor=#232F3E;fillColor=#C925D1;strokeColor=#ffffff;dashed=0;verticalLabelPosition=bottom;verticalAlign=top;align=center;html=1;fontSize=12;fontStyle=0;aspect=fixed;shape=mxgraph.aws4.resourceIcon;resIcon=mxgraph.aws4.dynamodb;" vertex="1" parent="eMamBAK1yqmDbK0pNENE-57">
          <mxGeometry x="810" y="154" width="54" height="54" as="geometry" />
        </mxCell>
        <mxCell id="eMamBAK1yqmDbK0pNENE-47" value="&lt;span style=&quot;color: rgb(0, 0, 0); background-color: rgb(255, 255, 255);&quot;&gt;Amazon Managed&lt;/span&gt;&lt;div style=&quot;color: rgb(0, 0, 0);&quot;&gt;Grafana&lt;/div&gt;" style="sketch=0;points=[[0,0,0],[0.25,0,0],[0.5,0,0],[0.75,0,0],[1,0,0],[0,1,0],[0.25,1,0],[0.5,1,0],[0.75,1,0],[1,1,0],[0,0.25,0],[0,0.5,0],[0,0.75,0],[1,0.25,0],[1,0.5,0],[1,0.75,0]];points=[[0,0,0],[0.25,0,0],[0.5,0,0],[0.75,0,0],[1,0,0],[0,1,0],[0.25,1,0],[0.5,1,0],[0.75,1,0],[1,1,0],[0,0.25,0],[0,0.5,0],[0,0.75,0],[1,0.25,0],[1,0.5,0],[1,0.75,0]];outlineConnect=0;fontColor=#232F3E;fillColor=#E7157B;strokeColor=#ffffff;dashed=0;verticalLabelPosition=bottom;verticalAlign=top;align=center;html=1;fontSize=12;fontStyle=0;aspect=fixed;shape=mxgraph.aws4.resourceIcon;resIcon=mxgraph.aws4.managed_service_for_grafana;" vertex="1" parent="eMamBAK1yqmDbK0pNENE-57">
          <mxGeometry x="610" y="31" width="48" height="48" as="geometry" />
        </mxCell>
      </root>
    </mxGraphModel>
  </diagram>
</mxfile>
